<svg height="512" viewBox="0 0 512 512" width="512" xmlns="http://www.w3.org/2000/svg"><g id="flat"><path d="m272 248h-40v48a32 32 0 0 1 -32 32 32 32 0 0 1 -32-32v-4.946a46 46 0 0 0 -13.473-32.527l-10.527-10.527h-112l-6.311 12.622a15.994 15.994 0 0 0 -1.689 7.155v68.223l8 24h16l8-24h80l16 24h120z" fill="#6b9777"/><g fill="#e4e4e2"><path d="m264 272h80v88h-80z"/><circle cx="432" cy="352" r="35"/><circle cx="99" cy="352" r="35"/></g><path d="m432 395a43 43 0 1 1 43-43 43.049 43.049 0 0 1 -43 43zm0-70a27 27 0 1 0 27 27 27.03 27.03 0 0 0 -27-27z" fill="#878787"/><circle cx="432" cy="352" fill="#c3c3c3" r="14"/><path d="m99 395a43 43 0 1 1 43-43 43.049 43.049 0 0 1 -43 43zm0-70a27 27 0 1 0 27 27 27.03 27.03 0 0 0 -27-27z" fill="#878787"/><circle cx="99" cy="352" fill="#c3c3c3" r="14"/><path d="m424 235.71v60.29l-48 64h-40v-224h24l52.36 72 4.751 6.531a36 36 0 0 1 6.889 21.179z" fill="#fbb540"/><path d="m336 248h88v48l-48 64h-40z" fill="#6b9777"/><path d="m264 296h72v8h-72z" fill="#cbcbcb"/><path d="m304 360h-16v-32a8 8 0 0 1 8-8h40v16h-32z" fill="#c3c3c3"/><path d="m367.236 360a63.725 63.725 0 0 1 -.5-8.462 63.011 63.011 0 0 1 121.264-23.538h-46.267a24 24 0 0 0 -19.2 9.6l-8.4 11.2a28 28 0 0 1 -22.4 11.2z" fill="#55785f"/><path d="m144 152v96h-112l25.14-96z" fill="#fbb540"/><path d="m272 248h-40v-112h32v96z" fill="#55785f"/><path d="m296 264v-32a16 16 0 0 0 -32 0v64h72v-32z" fill="#bd9070"/><path d="m32 336a64.027 64.027 0 0 1 61.984-48 64.025 64.025 0 0 1 61.983 48z" fill="#55785f"/><path d="m57.14 152h174.86v-16h128a32 32 0 0 0 -32-32h-224.894a46 46 0 0 0 -45.987 47.092z" fill="#da922a"/><path d="m232 136h32v16h-32z" fill="#425d4a"/><path d="m224 136h-80v32h80a16 16 0 0 0 0-32z" fill="#bd9070"/><path d="m80 176h32v16h-32z" fill="#da922a"/><path d="m80 208h32v16h-32z" fill="#da922a"/><path d="m418.18 216h-38.28a15.994 15.994 0 0 1 -15.32-11.4l-20.58-68.6h16l52.36 72z" fill="#d6d6d6"/><path d="m408 216h-28.1a15.994 15.994 0 0 1 -15.32-11.4l-20.58-68.6h5.82l52.36 72z" fill="#e4e4e2"/><circle cx="144" cy="152" fill="#8d7761" r="16"/><path d="m264 280h72v16h-72z" fill="#9a826a"/></g></svg>