<svg id="Capa_1" enable-background="new 0 0 497 497" height="512" viewBox="0 0 497 497" width="512" xmlns="http://www.w3.org/2000/svg"><g><path d="m253.254 73.5h-30v30h30c8.284 0 15-6.716 15-15s-6.716-15-15-15z" fill="#d40000"/><path d="m238.254 88.5c0-8.284-6.716-15-15-15h-27.254l-30 15 30 15h27.254c8.284 0 15-6.716 15-15z" fill="#f02e0e"/><path d="m138.746 73.5c-8.284 0-15 6.716-15 15s6.716 15 15 15h57.254v-30z" fill="#ff5c1c"/><path d="m223.25 133.5 90 170h-272l90-170z" fill="#2275ff"/><path d="m131.25 133.5v170l-123.75-60c9.47 0 18.43-4.33 24.3-11.77l64.14-81.14c8.54-10.79 21.54-17.09 35.31-17.09z" fill="#199aff"/><path d="m303.56 150.59c-8.54-10.79-21.54-17.09-35.31-17.09h-38.24v170l146.99-60z" fill="#2242cf"/><path d="m265.31 150.59 73.45 92.91-115.51 60v-170h6.76c13.76 0 26.77 6.3 35.3 17.09z" fill="#2a51ff"/><path d="m474.28 267.82-30-7.5v88.18l52.72-30v-21.58c0-13.76-9.37-25.76-22.72-29.1z" fill="#2bd4ff"/><path d="m444.28 260.32-67.28-16.82h-369.5c-4.142 0-7.5 3.358-7.5 7.5v67.5l104.706 30h362.294v-59.08c0-13.76-9.37-25.76-22.72-29.1z" fill="#8ae8ff"/><path d="m149.81 333.5h182.19v30h-182.19z" fill="#2bd4ff"/><path d="m497 318.5v37.5c0 4.142-3.358 7.5-7.5 7.5h-22.5l-30-22.5 30-22.5z" fill="#8b9ea4"/><path d="m91.9 318.5v45h-84.4c-4.142 0-7.5-3.358-7.5-7.5v-37.5z" fill="#a3bbc0"/><path d="m104.706 303.5v120c33.137 0 60-26.863 60-60s-26.862-60-60-60z" fill="#41494e"/><path d="m134.706 363.5c0-33.137-13.431-60-30-60-33.137 0-60 26.863-60 60s26.863 60 60 60c16.569 0 30-26.863 30-60z" fill="#5a656b"/><circle cx="104.706" cy="363.5" fill="#c9f8ff" r="30"/><path d="m404.81 318.5h62.19v45h-62.19z" fill="#a3bbc0"/><path d="m377 303.5v120c33.137 0 60-26.863 60-60s-26.863-60-60-60z" fill="#41494e"/><path d="m407 363.5c0-33.137-13.431-60-30-60-33.137 0-60 26.863-60 60s26.863 60 60 60c16.569 0 30-26.863 30-60z" fill="#5a656b"/><circle cx="377" cy="363.5" fill="#c9f8ff" r="30"/></g></svg>